<svg width="120" height="19" viewBox="0 0 120 19" fill="none" xmlns="http://www.w3.org/2000/svg">
<path d="M7.16989 9.81967L2.10262 12.9948L0 10.2401L4.878 7.14924V6.79192H1.09318V3.65922H12.6788V6.79192H9.31438V7.12859L13.499 9.12625L11.8168 12.0072L7.16989 9.82024V9.81967ZM3.1327 18.2932V13.0367L7.46412 12.6375V14.9925L19.2602 13.9412V18.2938H3.1327V18.2932ZM3.40629 3.19579V0H10.8916V3.19579H3.40629ZM14.7395 12.9942V8.05315L13.0573 8.24242V4.58377L14.7395 4.3945V0.37854H19.071V12.5532L14.7395 12.9948V12.9942Z" fill="#066AFF"/>
<path d="M21.1523 11.7334V0.463217H32.8641V10.4928L21.1523 11.7334ZM22.4772 18.2936V12.3012L26.8086 11.902V14.6774L38.6048 13.6261V18.2942H22.4772V18.2936ZM28.5539 4.01633H25.4631V7.71685L28.5539 7.38017V4.01576V4.01633ZM34.0841 12.6792V0.378906H38.4155V4.353L40.6443 4.10064V8.39019L38.4155 8.64255V12.2381L34.0841 12.6797V12.6792Z" fill="#066AFF"/>
<path d="M47.3291 7.5488L42.493 10.9551L39.8438 8.01165L45.0372 4.45796V4.01633H41.0419V0.463217H53.2584V4.0169H49.4736V4.43731L54.1835 6.96034L51.7442 9.92499L47.3285 7.5488H47.3291ZM46.5301 18.7771C45.8155 18.7771 45.1703 18.679 44.5956 18.4829C44.0203 18.2861 43.5265 18.0097 43.113 17.6524C42.6994 17.295 42.384 16.8672 42.1666 16.3699C41.9492 15.8727 41.8408 15.3152 41.8408 14.6986C41.8408 14.082 41.9527 13.5314 42.1775 13.0479C42.4018 12.5644 42.7172 12.1509 43.1239 11.8074C43.5305 11.4644 44.0209 11.1908 44.5956 10.9872C45.1703 10.7842 45.8149 10.6545 46.5301 10.5983L54.2891 10.0305C55.0037 9.97489 55.6524 10.038 56.234 10.2198C56.8155 10.4022 57.3094 10.6821 57.7166 11.0606C58.1232 11.4392 58.4381 11.9123 58.6629 12.4801C58.8872 13.0479 58.9996 13.6892 58.9996 14.4038C58.9996 15.0766 58.8906 15.6834 58.6738 16.2225C58.4564 16.7622 58.141 17.2211 57.7275 17.5996C57.3139 17.9781 56.8161 18.2689 56.2345 18.472C55.653 18.675 55.0043 18.7771 54.2896 18.7771H46.5307H46.5301ZM47.3291 14.1302C47.0068 14.1583 46.712 14.2077 46.4458 14.2776C46.1791 14.3476 46.053 14.495 46.0673 14.7193C46.0673 14.8317 46.1057 14.9189 46.1831 14.9819C46.26 15.045 46.3621 15.0909 46.4883 15.1184C46.6145 15.1465 46.7544 15.1603 46.9087 15.1603H47.3715L53.5113 14.8236C53.8193 14.8099 54.1067 14.768 54.3734 14.6975C54.6395 14.6275 54.7657 14.4732 54.7519 14.2346C54.7376 13.9966 54.6011 13.8457 54.3418 13.7827C54.082 13.7196 53.7918 13.7024 53.4695 13.7299L47.3297 14.1297L47.3291 14.1302ZM58.5993 7.59066V9.20978L54.2678 9.65141V0.378906H58.5993V3.30169L60.8281 3.04933V7.33888L58.5993 7.59124V7.59066Z" fill="#066AFF"/>
<path d="M74.4558 18.7564V15.3708L70.9864 17.7258L67.4958 12.448L63.8372 17.9363L60.3047 15.5394L65.3089 7.61246V0.483865H69.7458V7.65433L74.4558 15.224V0.378906H78.7872V6.49749L81.2896 6.20326V10.4928L78.7872 10.787V17.9151L74.4558 18.7559V18.7564Z" fill="#066AFF"/>
<path d="M81.2461 10.5978V7.82238L100.759 6.60302V9.3784L81.2461 10.5978ZM82.6759 18.5672V13.7517L94.9555 13.037V12.5954L82.6759 13.3101V10.9763L99.287 9.92499V14.698L87.0074 15.4339V15.8962L99.6867 15.1603V18.5666H82.6759V18.5672ZM94.8506 6.5818V6.14017L82.6972 6.85481V4.33178L94.8506 3.63779V3.06998H82.6972V0.378906H99.182V6.32944L94.8506 6.5818Z" fill="#066AFF"/>
<path d="M102.316 10.9763V4.54227L108.246 4.12186V3.32291H102.316V0.378906H112.556V6.24513L106.627 6.72863V7.56944L114.68 6.81236V9.71393L102.316 10.9757V10.9763ZM103.957 18.4198V11.4598L108.288 11.0182V11.9857L115.669 11.1868V10.3035L120 9.8619V18.4198H103.957ZM115.669 13.9622L108.288 14.7193V15.3708L115.669 14.7399V13.9622ZM115.669 9.75694V5.93025L113.272 6.18261V2.10298L115.669 1.85062V0.378906H120V9.31531L115.669 9.75694Z" fill="#066AFF"/>
</svg>
